<svg width="90" height="22" viewBox="0 0 90 22" fill="none" xmlns="http://www.w3.org/2000/svg">
<g clip-path="url(#clip0_328_21)">
<g filter="url(#filter0_d_328_21)">
<path d="M1.47705 15V9H3.6333V15H1.47705ZM2.55518 8.375C2.26351 8.375 2.01351 8.27865 1.80518 8.08594C1.59684 7.89323 1.49268 7.66146 1.49268 7.39062C1.49268 7.11979 1.59684 6.88802 1.80518 6.69531C2.01351 6.5026 2.26351 6.40625 2.55518 6.40625C2.84945 6.40625 3.09945 6.5026 3.30518 6.69531C3.51351 6.88802 3.61768 7.11979 3.61768 7.39062C3.61768 7.66146 3.51351 7.89323 3.30518 8.08594C3.09945 8.27865 2.84945 8.375 2.55518 8.375ZM8.62256 12.375V9H10.7788V15H8.73193V13.8594H8.66943C8.53923 14.2422 8.31136 14.5417 7.98584 14.7578C7.66032 14.9714 7.2736 15.0781 6.82568 15.0781C6.40641 15.0781 6.03923 14.9818 5.72412 14.7891C5.41162 14.5964 5.16813 14.3307 4.99365 13.9922C4.82178 13.6536 4.73454 13.2656 4.73193 12.8281V9H6.88818V12.375C6.89079 12.6719 6.96631 12.9049 7.11475 13.0742C7.26579 13.2435 7.47673 13.3281 7.74756 13.3281C7.92725 13.3281 8.08219 13.2904 8.2124 13.2148C8.34521 13.1367 8.44678 13.0273 8.51709 12.8867C8.59001 12.7435 8.62516 12.5729 8.62256 12.375ZM17.3599 10.9531H15.3755C15.3651 10.8307 15.3221 10.7253 15.2466 10.6367C15.1711 10.5482 15.0734 10.4805 14.9536 10.4336C14.8364 10.3841 14.7062 10.3594 14.563 10.3594C14.3781 10.3594 14.2192 10.3932 14.0864 10.4609C13.9536 10.5286 13.8885 10.625 13.8911 10.75C13.8885 10.8385 13.9263 10.9206 14.0044 10.9961C14.0851 11.0716 14.2401 11.1302 14.4692 11.1719L15.688 11.3906C16.3026 11.5026 16.7596 11.6914 17.0591 11.957C17.3612 12.2201 17.5135 12.5729 17.5161 13.0156C17.5135 13.4427 17.3859 13.8138 17.1333 14.1289C16.8833 14.4414 16.5409 14.6836 16.106 14.8555C15.6737 15.0247 15.1802 15.1094 14.6255 15.1094C13.7088 15.1094 12.9914 14.9219 12.4731 14.5469C11.9575 14.1719 11.6698 13.6771 11.6099 13.0625H13.7505C13.7791 13.2526 13.8729 13.3997 14.0317 13.5039C14.1932 13.6055 14.3963 13.6562 14.6411 13.6562C14.839 13.6562 15.0018 13.6224 15.1294 13.5547C15.2596 13.487 15.326 13.3906 15.3286 13.2656C15.326 13.151 15.2687 13.0599 15.1567 12.9922C15.0474 12.9245 14.8755 12.8698 14.6411 12.8281L13.5786 12.6406C12.9666 12.5339 12.5083 12.3307 12.2036 12.0312C11.8989 11.7318 11.7479 11.3464 11.7505 10.875C11.7479 10.4583 11.8573 10.1055 12.0786 9.81641C12.3026 9.52474 12.6216 9.30339 13.0356 9.15234C13.4523 8.9987 13.9458 8.92188 14.5161 8.92188C15.3833 8.92188 16.0669 9.10156 16.5669 9.46094C17.0695 9.82031 17.3338 10.3177 17.3599 10.9531ZM21.2173 15.1094C20.5767 15.1094 20.0246 14.987 19.561 14.7422C19.1001 14.4948 18.7446 14.1406 18.4946 13.6797C18.2472 13.2161 18.1235 12.6615 18.1235 12.0156C18.1235 11.3958 18.2485 10.8542 18.4985 10.3906C18.7485 9.92708 19.1014 9.56641 19.5571 9.30859C20.0129 9.05078 20.5506 8.92188 21.1704 8.92188C21.6235 8.92188 22.0337 8.99219 22.4009 9.13281C22.7681 9.27344 23.0819 9.47786 23.3423 9.74609C23.6027 10.0117 23.8032 10.3346 23.9438 10.7148C24.0845 11.0951 24.1548 11.5234 24.1548 12V12.5H18.7954V11.3125H22.1704C22.1678 11.1406 22.1235 10.9896 22.0376 10.8594C21.9543 10.7266 21.841 10.6237 21.6978 10.5508C21.5571 10.4753 21.397 10.4375 21.2173 10.4375C21.0428 10.4375 20.8826 10.4753 20.7368 10.5508C20.591 10.6237 20.4738 10.7253 20.3853 10.8555C20.2993 10.9857 20.2537 11.138 20.2485 11.3125V12.5938C20.2485 12.7865 20.2889 12.9583 20.3696 13.1094C20.4504 13.2604 20.5662 13.3789 20.7173 13.4648C20.8683 13.5508 21.0506 13.5938 21.2642 13.5938C21.4126 13.5938 21.548 13.5729 21.6704 13.5312C21.7954 13.4896 21.9022 13.4297 21.9907 13.3516C22.0793 13.2708 22.1444 13.1745 22.186 13.0625H24.1548C24.0871 13.4792 23.9269 13.8411 23.6743 14.1484C23.4217 14.4531 23.0871 14.6901 22.6704 14.8594C22.2563 15.026 21.772 15.1094 21.2173 15.1094ZM27.1909 7V15H25.0347V7H27.1909ZM28.2896 15V9H30.4458V15H28.2896ZM29.3677 8.375C29.076 8.375 28.826 8.27865 28.6177 8.08594C28.4093 7.89323 28.3052 7.66146 28.3052 7.39062C28.3052 7.11979 28.4093 6.88802 28.6177 6.69531C28.826 6.5026 29.076 6.40625 29.3677 6.40625C29.6619 6.40625 29.9119 6.5026 30.1177 6.69531C30.326 6.88802 30.4302 7.11979 30.4302 7.39062C30.4302 7.66146 30.326 7.89323 30.1177 8.08594C29.9119 8.27865 29.6619 8.375 29.3677 8.375ZM33.7007 11.625V15H31.5444V9H33.5913V10.1406H33.6538C33.784 9.76042 34.0132 9.46224 34.3413 9.24609C34.672 9.02995 35.0575 8.92188 35.4976 8.92188C35.922 8.92188 36.2905 9.01953 36.603 9.21484C36.9181 9.40755 37.1616 9.67318 37.3335 10.0117C37.508 10.3503 37.5939 10.737 37.5913 11.1719V15H35.4351V11.625C35.4377 11.3281 35.3621 11.0951 35.2085 10.9258C35.0575 10.7565 34.8465 10.6719 34.5757 10.6719C34.3986 10.6719 34.2437 10.7109 34.1108 10.7891C33.9806 10.8646 33.8804 10.974 33.8101 11.1172C33.7397 11.2578 33.7033 11.4271 33.7007 11.625ZM42.5464 12.375V9H44.7026V15H42.6558V13.8594H42.5933C42.4631 14.2422 42.2352 14.5417 41.9097 14.7578C41.5841 14.9714 41.1974 15.0781 40.7495 15.0781C40.3302 15.0781 39.9631 14.9818 39.6479 14.7891C39.3354 14.5964 39.092 14.3307 38.9175 13.9922C38.7456 13.6536 38.6584 13.2656 38.6558 12.8281V9H40.812V12.375C40.8146 12.6719 40.8901 12.9049 41.0386 13.0742C41.1896 13.2435 41.4006 13.3281 41.6714 13.3281C41.8511 13.3281 42.006 13.2904 42.1362 13.2148C42.269 13.1367 42.3706 13.0273 42.4409 12.8867C42.5138 12.7435 42.549 12.5729 42.5464 12.375ZM47.6587 9L48.5337 10.8594L49.4556 9H51.5962L49.9868 12L51.6743 15H49.5493L48.5337 13.0938L47.5493 15H45.3931L47.0962 12L45.5024 9H47.6587ZM52.3315 15V7H54.4878V10.0469H54.519C54.5972 9.84375 54.7118 9.65755 54.8628 9.48828C55.0138 9.31641 55.2013 9.17969 55.4253 9.07812C55.6493 8.97396 55.9097 8.92188 56.2065 8.92188C56.6024 8.92188 56.9787 9.02734 57.3354 9.23828C57.6948 9.44922 57.9865 9.78125 58.2104 10.2344C58.437 10.6875 58.5503 11.276 58.5503 12C58.5503 12.6927 58.4422 13.2669 58.2261 13.7227C58.0125 14.1784 57.7261 14.5182 57.3667 14.7422C57.0099 14.9661 56.618 15.0781 56.1909 15.0781C55.9097 15.0781 55.6584 15.0326 55.437 14.9414C55.2183 14.8477 55.0308 14.7214 54.8745 14.5625C54.7209 14.401 54.6024 14.2187 54.519 14.0156H54.4722V15H52.3315ZM54.4409 12C54.4409 12.2917 54.4787 12.5443 54.5542 12.7578C54.6323 12.9687 54.7417 13.1328 54.8823 13.25C55.0256 13.3646 55.1961 13.4219 55.394 13.4219C55.592 13.4219 55.7599 13.3659 55.8979 13.2539C56.0386 13.1393 56.1453 12.9766 56.2183 12.7656C56.2938 12.5521 56.3315 12.2969 56.3315 12C56.3315 11.7031 56.2938 11.4492 56.2183 11.2383C56.1453 11.0247 56.0386 10.862 55.8979 10.75C55.7599 10.6354 55.592 10.5781 55.394 10.5781C55.1961 10.5781 55.0256 10.6354 54.8823 10.75C54.7417 10.862 54.6323 11.0247 54.5542 11.2383C54.4787 11.4492 54.4409 11.7031 54.4409 12ZM63.0308 9V10.5625H59.0776V9H63.0308ZM59.8433 7.5625H61.9995V13.0703C61.9995 13.1536 62.0138 13.224 62.0425 13.2812C62.0711 13.3359 62.1154 13.3776 62.1753 13.4062C62.2352 13.4323 62.312 13.4453 62.4058 13.4453C62.4709 13.4453 62.5464 13.4375 62.6323 13.4219C62.7209 13.4062 62.786 13.3932 62.8276 13.3828L63.1401 14.8984C63.0438 14.9271 62.9058 14.9622 62.7261 15.0039C62.549 15.0456 62.3381 15.0729 62.0933 15.0859C61.5985 15.112 61.1831 15.0612 60.8472 14.9336C60.5112 14.8034 60.2586 14.599 60.0894 14.3203C59.9201 14.0417 59.8381 13.6927 59.8433 13.2734V7.5625ZM64.9731 15L63.4731 9H65.6294L66.3169 12.6562H66.3638L67.1294 9H69.2231L70.02 12.625H70.0669L70.7231 9H72.8794L71.3794 15H69.0513L68.2075 11.7812H68.145L67.3013 15H64.9731ZM81.2544 11C81.2544 11.8906 81.0812 12.6419 80.7349 13.2539C80.3885 13.8633 79.9211 14.3255 79.3325 14.6406C78.744 14.9531 78.0877 15.1094 77.3638 15.1094C76.6346 15.1094 75.9757 14.9518 75.3872 14.6367C74.8013 14.319 74.3351 13.8555 73.9888 13.2461C73.645 12.6341 73.4731 11.8854 73.4731 11C73.4731 10.1094 73.645 9.35937 73.9888 8.75C74.3351 8.13802 74.8013 7.67578 75.3872 7.36328C75.9757 7.04818 76.6346 6.89062 77.3638 6.89062C78.0877 6.89062 78.744 7.04818 79.3325 7.36328C79.9211 7.67578 80.3885 8.13802 80.7349 8.75C81.0812 9.35937 81.2544 10.1094 81.2544 11ZM79.02 11C79.02 10.5208 78.9562 10.1172 78.8286 9.78906C78.7036 9.45833 78.5174 9.20833 78.27 9.03906C78.0252 8.86719 77.7231 8.78125 77.3638 8.78125C77.0044 8.78125 76.701 8.86719 76.4536 9.03906C76.2088 9.20833 76.0226 9.45833 75.895 9.78906C75.77 10.1172 75.7075 10.5208 75.7075 11C75.7075 11.4792 75.77 11.8841 75.895 12.2148C76.0226 12.543 76.2088 12.793 76.4536 12.9648C76.701 13.1341 77.0044 13.2187 77.3638 13.2187C77.7231 13.2187 78.0252 13.1341 78.27 12.9648C78.5174 12.793 78.7036 12.543 78.8286 12.2148C78.9562 11.8841 79.02 11.4792 79.02 11ZM86.5718 9.5C86.5509 9.23958 86.4533 9.03646 86.2788 8.89062C86.1069 8.74479 85.8452 8.67187 85.4937 8.67187C85.2697 8.67187 85.0861 8.69922 84.9429 8.75391C84.8022 8.80599 84.6981 8.8776 84.6304 8.96875C84.5627 9.0599 84.5275 9.16406 84.5249 9.28125C84.5197 9.3776 84.5366 9.46484 84.5757 9.54297C84.6174 9.61849 84.6825 9.6875 84.771 9.75C84.8595 9.8099 84.9728 9.86458 85.1108 9.91406C85.2489 9.96354 85.4129 10.0078 85.603 10.0469L86.2593 10.1875C86.702 10.2812 87.0809 10.4049 87.396 10.5586C87.7111 10.7122 87.9689 10.8932 88.1694 11.1016C88.37 11.3073 88.5171 11.5391 88.6108 11.7969C88.7072 12.0547 88.7567 12.3359 88.7593 12.6406C88.7567 13.1667 88.6252 13.612 88.3647 13.9766C88.1043 14.3411 87.7319 14.6185 87.2476 14.8086C86.7658 14.9987 86.1864 15.0938 85.5093 15.0938C84.814 15.0938 84.2072 14.9909 83.689 14.7852C83.1733 14.5794 82.7723 14.263 82.4858 13.8359C82.202 13.4062 82.0588 12.8568 82.0562 12.1875H84.1187C84.1317 12.4323 84.1929 12.638 84.3022 12.8047C84.4116 12.9714 84.5653 13.0977 84.7632 13.1836C84.9637 13.2695 85.202 13.3125 85.478 13.3125C85.7098 13.3125 85.9038 13.2839 86.0601 13.2266C86.2163 13.1693 86.3348 13.0898 86.4155 12.9883C86.4963 12.8867 86.5379 12.7708 86.5405 12.6406C86.5379 12.5182 86.4976 12.4115 86.4194 12.3203C86.3439 12.2266 86.2189 12.1432 86.0444 12.0703C85.87 11.9948 85.6343 11.9245 85.3374 11.8594L84.5405 11.6875C83.8322 11.5339 83.2736 11.2773 82.8647 10.918C82.4585 10.556 82.2567 10.0625 82.2593 9.4375C82.2567 8.92969 82.3921 8.48568 82.6655 8.10547C82.9416 7.72266 83.3231 7.42448 83.8101 7.21094C84.2996 6.9974 84.8608 6.89062 85.4937 6.89062C86.1395 6.89062 86.6981 6.9987 87.1694 7.21484C87.6408 7.43099 88.0041 7.73568 88.2593 8.12891C88.5171 8.51953 88.6473 8.97656 88.6499 9.5H86.5718Z" fill="url(#paint0_linear_328_21)"/>
</g>
</g>
<defs>
<filter id="filter0_d_328_21" x="-0.522949" y="4.40625" width="91.2822" height="12.7188" filterUnits="userSpaceOnUse" color-interpolation-filters="sRGB">
<feFlood flood-opacity="0" result="BackgroundImageFix"/>
<feColorMatrix in="SourceAlpha" type="matrix" values="0 0 0 0 0 0 0 0 0 0 0 0 0 0 0 0 0 0 127 0" result="hardAlpha"/>
<feOffset/>
<feGaussianBlur stdDeviation="1"/>
<feComposite in2="hardAlpha" operator="out"/>
<feColorMatrix type="matrix" values="0 0 0 0 0 0 0 0 0 0 0 0 0 0 0 0 0 0 0.25 0"/>
<feBlend mode="normal" in2="BackgroundImageFix" result="effect1_dropShadow_328_21"/>
<feBlend mode="normal" in="SourceGraphic" in2="effect1_dropShadow_328_21" result="shape"/>
</filter>
<linearGradient id="paint0_linear_328_21" x1="45" y1="0" x2="45" y2="22" gradientUnits="userSpaceOnUse">
<stop stop-color="white"/>
<stop offset="1" stop-color="#C3C3C3"/>
</linearGradient>
<clipPath id="clip0_328_21">
<rect width="90" height="22" fill="white"/>
</clipPath>
</defs>
</svg>
