<svg width="512" height="512" viewBox="0 0 512 512" fill="none" xmlns="http://www.w3.org/2000/svg">
<g clip-path="url(#clip0_327_6)">
<g filter="url(#filter0_d_327_6)">
<path d="M262.712 255.727C262.712 282.284 257.548 304.687 247.221 322.935C236.893 341.105 222.954 354.888 205.405 364.284C187.856 373.602 168.288 378.261 146.701 378.261C124.958 378.261 105.312 373.563 87.7631 364.168C70.2915 354.694 56.3919 340.872 46.0643 322.702C35.8143 304.454 30.6893 282.129 30.6893 255.727C30.6893 229.17 35.8143 206.807 46.0643 188.636C56.3919 170.388 70.2915 156.605 87.7631 147.287C105.312 137.891 124.958 133.193 146.701 133.193C168.288 133.193 187.856 137.891 205.405 147.287C222.954 156.605 236.893 170.388 247.221 188.636C257.548 206.807 262.712 229.17 262.712 255.727ZM196.087 255.727C196.087 241.439 194.185 229.403 190.38 219.619C186.652 209.758 181.1 202.303 173.723 197.256C166.424 192.131 157.417 189.568 146.701 189.568C135.985 189.568 126.938 192.131 119.561 197.256C112.262 202.303 106.71 209.758 102.905 219.619C99.1779 229.403 97.3143 241.439 97.3143 255.727C97.3143 270.015 99.1779 282.09 102.905 291.952C106.71 301.736 112.262 309.19 119.561 314.315C126.938 319.363 135.985 321.886 146.701 321.886C157.417 321.886 166.424 319.363 173.723 314.315C181.1 309.19 186.652 301.736 190.38 291.952C194.185 282.09 196.087 270.015 196.087 255.727ZM421.267 211C420.645 203.235 417.734 197.178 412.531 192.83C407.406 188.481 399.602 186.307 389.119 186.307C382.441 186.307 376.966 187.122 372.696 188.753C368.502 190.306 365.396 192.441 363.377 195.159C361.359 197.877 360.31 200.983 360.233 204.477C360.077 207.35 360.582 209.952 361.747 212.281C362.989 214.533 364.931 216.591 367.571 218.455C370.211 220.241 373.589 221.871 377.704 223.347C381.82 224.822 386.712 226.142 392.38 227.307L411.949 231.5C425.149 234.295 436.448 237.984 445.843 242.565C455.239 247.147 462.927 252.544 468.906 258.756C474.885 264.89 479.272 271.801 482.068 279.489C484.941 287.176 486.416 295.562 486.494 304.648C486.416 320.333 482.495 333.612 474.73 344.483C466.965 355.354 455.86 363.624 441.417 369.293C427.052 374.961 409.774 377.795 389.585 377.795C368.852 377.795 350.759 374.728 335.306 368.594C319.931 362.459 307.973 353.025 299.431 340.29C290.967 327.477 286.697 311.093 286.619 291.136H348.119C348.507 298.436 350.332 304.57 353.593 309.54C356.855 314.509 361.436 318.276 367.338 320.838C373.317 323.401 380.422 324.682 388.653 324.682C395.564 324.682 401.349 323.828 406.008 322.119C410.667 320.411 414.2 318.043 416.608 315.014C419.015 311.986 420.257 308.53 420.335 304.648C420.257 300.998 419.054 297.814 416.724 295.097C414.472 292.301 410.745 289.816 405.542 287.642C400.34 285.39 393.312 283.294 384.46 281.352L360.699 276.227C339.577 271.646 322.921 263.997 310.73 253.281C298.616 242.488 292.598 227.773 292.676 209.136C292.598 193.994 296.636 180.755 304.789 169.418C313.02 158.003 324.396 149.112 338.917 142.744C353.516 136.377 370.25 133.193 389.119 133.193C408.377 133.193 425.033 136.416 439.088 142.861C453.143 149.306 463.975 158.391 471.585 170.116C479.272 181.764 483.155 195.392 483.233 211H421.267Z" fill="url(#paint0_linear_327_6)"/>
</g>
</g>
<defs>
<filter id="filter0_d_327_6" x="26.6893" y="129.193" width="463.805" height="253.068" filterUnits="userSpaceOnUse" color-interpolation-filters="sRGB">
<feFlood flood-opacity="0" result="BackgroundImageFix"/>
<feColorMatrix in="SourceAlpha" type="matrix" values="0 0 0 0 0 0 0 0 0 0 0 0 0 0 0 0 0 0 127 0" result="hardAlpha"/>
<feOffset/>
<feGaussianBlur stdDeviation="2"/>
<feComposite in2="hardAlpha" operator="out"/>
<feColorMatrix type="matrix" values="0 0 0 0 0 0 0 0 0 0 0 0 0 0 0 0 0 0 0.25 0"/>
<feBlend mode="normal" in2="BackgroundImageFix" result="effect1_dropShadow_327_6"/>
<feBlend mode="normal" in="SourceGraphic" in2="effect1_dropShadow_327_6" result="shape"/>
</filter>
<linearGradient id="paint0_linear_327_6" x1="256" y1="0" x2="256" y2="512" gradientUnits="userSpaceOnUse">
<stop stop-color="white"/>
<stop offset="1" stop-color="#C3C3C3"/>
</linearGradient>
<clipPath id="clip0_327_6">
<rect width="512" height="512" fill="white"/>
</clipPath>
</defs>
</svg>
